<svg xmlns="http://www.w3.org/2000/svg" xmlns:xlink="http://www.w3.org/1999/xlink"><symbol id="htmlacademy"><path d="M13.6 0h-.1L0 1.4v24.7l13.5 8 13.4-8V1.4L13.6 0ZM25 12.1 13.5 5.3v-.1h-.1l-.1-.1v.1L1.9 12.1v-9l11.5-1.2L25 3.1v9ZM13.4 6.8l11.5 6.7-4.5 2.6-7.1-4.2v1.4l5.9 3.5-.9.5-5-3v1.4l3.8 2.3-.8.5-3-1.8v1.4l1.9 1.1-1.8 1.1L2 13.6l11.4-6.8ZM1.9 15.1l11.4 6.8v1l-7.9-4.7v1.4l8 4.8v1.1l-8-4.7v1.4l8 4.8 8.1-4.9v-5.2l3.4-2v10l-11.5 6.9L1.9 25v-9.9Z"/></symbol><symbol id="icon-burger"><g fill="none"><path d="M71.711 45.332H4.29C1.895 45.332 0 47.303 0 49.57v3.45c0 2.266 1.895 4.138 4.289 4.138h.997v.986c0 5.42 4.488 9.756 9.874 9.756h45.68c5.486 0 9.874-4.435 9.874-9.756v-.986h.997c2.294 0 4.289-1.872 4.289-4.237v-3.45c0-2.168-1.895-4.139-4.289-4.139Zm-3.89 12.812c0 3.745-3.091 6.8-6.881 6.8H15.06c-3.79 0-6.882-3.055-6.882-6.8v-.986h59.644v.986Zm5.187-5.223c0 .69-.599 1.28-1.297 1.28H4.29c-.698 0-1.297-.59-1.297-1.28v-3.45c0-.59.599-1.182 1.297-1.182H71.81c.698 0 1.297.591 1.297 1.281v3.35h-.1ZM16.157 37.35l5.386 3.941 5.486-3.941 5.485 3.941L38 37.35l5.386 3.941 5.485-3.941 5.486 3.941 5.486-3.941 5.485 3.941 6.284-4.631-1.696-2.365-4.588 3.252-5.485-3.942-5.486 3.942-5.486-3.942-5.485 3.942L38 33.605l-5.486 3.942-5.485-3.942-5.486 3.942-5.386-3.942-5.485 3.942-4.588-3.252-1.795 2.365 6.383 4.632 5.485-3.942ZM70.714 30.649c0-.592.1-2.563 0-2.957C70.016 12.32 55.654 0 38 0 20.346 0 5.884 12.319 5.186 27.692v2.957h65.528ZM38 2.956c15.958 0 29.123 11.038 29.722 24.736H8.178C8.877 13.994 22.042 2.956 38 2.956Z" fill="#81B3D2"/><path d="M38 16.753a1.983 1.983 0 0 0 1.995-1.97A1.983 1.983 0 0 0 38 12.81a1.983 1.983 0 0 0-1.995 1.971c0 1.089.893 1.971 1.995 1.971ZM30.021 11.924a1.983 1.983 0 0 0 1.995-1.971 1.983 1.983 0 0 0-1.995-1.97 1.983 1.983 0 0 0-1.995 1.97c0 1.089.893 1.971 1.995 1.971ZM45.979 11.924a1.983 1.983 0 0 0 1.995-1.971 1.983 1.983 0 0 0-1.995-1.97 1.983 1.983 0 0 0-1.995 1.97c0 1.089.893 1.971 1.995 1.971Z" fill="#81B3D2"/></g></symbol><symbol id="icon-facebook"><g fill="none"><path d="M6.3 3.4h2.4V0H5.8C2.7.2 1.5 2.4 1.9 6.1H0v3.5h2v9.3h3.8V9.6h2.9V6.1H5.8c0-1 0-2.4.5-2.7Z" fill="#fff"/></g></symbol><symbol id="icon-gift"><g fill="none"><path d="M61.156 22.117H36.368C50.184 15.319 51.302 11.02 50.794 8.62c-1.118-3.899-5.69-6.898-9.956-5.298-5.587 2.099-7.111 10.296-8.635 16.194-1.93-5.998-3.759-13.595-8.127-17.494-1.219-1.1-3.047-2.2-5.79-2-4.064.4-9.854 5.299-7.416 10.797 2.235 5.299 9.65 8.697 14.628 11.397H2.844A2.817 2.817 0 0 0 0 25.016v11.196c0 1.6 1.32 2.8 2.844 2.8h.305V75h57.905V39.011h.102c1.625 0 2.844-1.3 2.844-2.799V25.016c0-1.6-1.32-2.9-2.844-2.9ZM42.464 5.822c2.133-.3 4.977 1.3 5.282 3.199.406 2.699-3.352 5.198-5.08 6.298-2.539 1.7-4.977 2.599-7.314 3.999.813-3.7 2.54-12.896 7.112-13.496Zm-22.96 9.797c-2.234-1.5-6.5-4.399-6.4-7.698.102-3.599 5.791-6.498 8.839-3.799 3.86 3.3 5.689 10.997 7.111 16.395-3.25-1.6-6.298-2.799-9.55-4.898ZM25.499 72H6.095V39.01h19.403v32.99Zm0-35.989H3.048V25.116h22.45v10.896Zm10.16 35.989h-7.214V25.116h7.213V72Zm22.348 0H38.705V39.01h19.403v32.99h-.102Zm2.946-35.989H38.705V25.116h22.247v10.896Z" fill="#81B3D2"/></g></symbol><symbol id="icon-house"><g fill="none"><path d="M29.619 64.939h16.064V41.17H29.619v23.768Zm13.152-2.884h-10.24v-18h10.14v18h.1Z" fill="#81B3D2"/><path d="M72.892 39.182 75 37.094l-9.94-9.845V.398H51.205v13.127L37.45 0 0 37.193l2.108 2.089 7.832-7.757v37.591H6.024V72h64.157v-2.884h-5.12v-37.69l7.83 7.756Zm-18.775-35.8h7.931v20.983l-7.931-7.857V3.381Zm8.032 65.635H12.952V28.54L37.45 4.177 62.048 28.54v40.476h.1Z" fill="#81B3D2"/><path d="M29.92 27.05c0 4.275 3.514 7.756 7.73 7.756 4.318 0 7.832-3.48 7.832-7.757 0-4.276-3.514-7.657-7.831-7.657-4.318 0-7.731 3.38-7.731 7.657Zm7.73-4.973c2.712 0 5.02 2.188 5.02 4.972 0 2.685-2.208 4.972-5.02 4.972-2.71 0-5.02-2.187-5.02-4.972 0-2.685 2.31-4.972 5.02-4.972ZM19.98 41.17h-3.012v3.88h3.012v-3.88ZM25.904 41.17h-3.012v3.88h3.012v-3.88ZM19.98 47.139h-3.012v3.878h3.012V47.14ZM25.904 47.139h-3.012v3.878h3.012V47.14ZM52.008 41.17h-3.012v3.88h3.012v-3.88ZM58.032 41.17H55.02v3.88h3.012v-3.88ZM52.008 47.139h-3.012v3.878h3.012V47.14ZM58.032 47.139H55.02v3.878h3.012V47.14Z" fill="#81B3D2"/></g></symbol><symbol id="icon-twitter"><g fill="none"><path d="M11.3.167c1.7-.5 3.1.2 3.7 1.1.7-.2 1.4-.5 2.1-.7 0 .8-.5 1.5-.9 1.7.7.2 1.3-.5 1.3-.5-.2 1-1 1.7-1.6 2-.2 6.6-3.3 11-10.4 10.8H5c-.4 0-4.3-.4-5-1.8 2.3.2 4-.4 4.8-1.1-1-.3-2.8-.5-3.1-2.9.4.1.6.2 1.3.1-1.2-.8-2.6-1.5-2.5-3.7.3.3 1.1.5 1.4.5-.7-.2-2-3.3-.9-4.8 1.9 1.8 3.8 3.5 7.4 3.7.1-2.3 1.1-3.8 2.9-4.4Z" fill="#fff"/></g></symbol><symbol id="icon-youtube"><g fill="none"><path d="M17.1 0H2.8C1.3 0 0 1.3 0 2.8v8.3C0 12.7 1.3 14 2.8 14h14.3c1.6 0 2.8-1.3 2.8-2.8V2.8C20 1.3 18.7 0 17.1 0ZM7 10.4V3.6L13.8 7 7 10.4Z" fill="#fff"/></g></symbol></svg>